<svg viewBox="0 0 512 512" xmlns="http://www.w3.org/2000/svg"><g fill="none" stroke="#e7b2b2" stroke-width="27" stroke-linejoin="round" stroke-linecap="round"><path d="M258.3 344.48v-35.33m25.7-14.31c0 5.19-11.22 14.32-25.05 14.32s-25.05-9.13-25.05-14.32c0-5.2 11.2-4.47 25.05-4.47 13.84 0 25.05-.72 25.05 4.47zM162.28 132.57c25.3-7.17 56.1-10.66 93.72-10.66m0 350.74c-101.76 0-226.3-6.53-214.38-128.35 9.23-94.51 25.07-156.88 74.64-190.88"/><path d="M200.8 124.97s-61.35-85.62-106-85.62c-34.13 0-45.07 138.25-16.8 155.73"/><path d="M162.28 132.57c-12.68-21.5-38.27-45.65-52.8-58.49a8.42 8.42 0 0 0-13.84 4.74c-3.68 19.43-8.36 56.38-.11 92.48m215.59-46.33s61.34-85.62 106-85.62c34.11 0 45.05 138.24 16.78 155.73"/><path d="M349.63 132.57c12.68-21.5 38.26-45.65 52.8-58.49a8.42 8.42 0 0 1 13.85 4.74c3.68 19.43 8.36 56.38.11 92.48m-66.67-38.73c-25.3-7.17-56.1-10.66-93.72-10.66"/><path d="M256 472.65c101.76 0 226.3-6.53 214.38-128.35-9.24-94.51-25.07-156.88-74.64-190.88M79.98 384.32s-16.63-43.2 24.73-39.84m331.84 39.84s16.63-43.2-24.73-39.84"/><circle cx="161.42" cy="273.26" r="14.26"/><circle cx="356.36" cy="274.03" r="14.33"/><path d="M266.95 360.47a59.84 59.84 0 0 1-8.68-16.02 59.84 59.84 0 0 1-8.68 16.02c-17.08 22.56-49 32.48-77.46 30.44 0 0 31.19 46.1 85.46 46.1 53 0 84.02-44.01 85.4-46.03-28.1 1.62-59.24-8.33-76.04-30.51z"/><path d="M408.28 371.33s-22.27 16.64-63.87 19.62c-34.5 2.47-74.06-12.6-86.14-46.45-12.08 33.84-51.65 48.92-86.14 46.45-41.6-3-63.87-19.62-63.87-19.62m271.32-34.89s-43.15 1.63-56.97-37.05c-18.98-53.13-63.09-51.23-63.09-51.23s-44.1-1.87-63.08 51.23c-13.82 38.68-56.97 37.05-56.97 37.05"/></g><path d="M256 121.9c20.3 0 38.61 1.02 55.13 3.08 0 0 61.33-85.63 105.99-85.63 34.11 0 45.05 138.24 16.8 155.71 20.87 35.7 30.19 85.06 36.46 149.24C482.31 466.12 357.76 472.65 256 472.65c-101.76 0-226.3-6.53-214.38-128.35C47.88 280.17 57.19 230.84 78 195.1 49.74 177.6 60.68 39.36 94.79 39.36c44.66 0 106.02 85.63 106.02 85.63 16.56-2.06 34.88-3.07 55.19-3.07z" fill="#fff"/><g transform="translate(55.16 -33.26)" stroke="#600" stroke-width="18" stroke-linejoin="round" stroke-linecap="round"><path fill="none" d="M203.14 377.74v-35.33"/><path d="M228.84 328.1c0 5.2-11.22 14.32-25.05 14.32s-25.05-9.13-25.05-14.32c0-5.2 11.21-4.46 25.05-4.46s25.05-.73 25.05 4.46z" fill="#600"/><path d="M107.12 165.83c25.3-7.17 56.1-10.66 93.72-10.66m0 350.74c-101.76 0-226.3-6.53-214.38-128.35 9.23-94.51 25.07-156.87 74.64-190.88" fill="none"/><path d="M145.63 158.23s-61.33-85.62-106-85.62c-34.1 0-45.04 138.24-16.78 155.73" fill="none"/><path d="M107.12 165.83c-12.67-21.5-38.26-45.65-52.8-58.48a8.42 8.42 0 0 0-13.84 4.73c-3.68 19.43-8.36 56.38-.11 92.48m215.6-46.33s61.33-85.62 105.99-85.62c34.11 0 45.05 138.24 16.78 155.73" fill="none"/><path d="M294.47 165.83c12.68-21.5 38.26-45.65 52.8-58.48a8.42 8.42 0 0 1 13.85 4.73c3.68 19.43 8.37 56.38.11 92.48m-66.67-38.73c-25.3-7.17-56.1-10.66-93.72-10.66" fill="none"/><path d="M200.84 505.91c101.76 0 226.3-6.53 214.38-128.35-9.24-94.51-25.07-156.87-74.64-190.88M24.82 417.58s-16.63-43.2 24.74-39.84m331.83 39.84s16.64-43.2-24.73-39.84" fill="none"/><circle cx="106.26" cy="306.53" r="14.26" fill="#600"/><circle cx="301.2" cy="307.3" r="14.33" fill="#600"/><path d="M211.8 393.73a59.84 59.84 0 0 1-8.69-16.02 59.84 59.84 0 0 1-8.68 16.02c-17.08 22.56-48.99 32.48-77.46 30.44 0 0 31.19 46.1 85.46 46.1 53 0 84.02-44 85.41-46.02-28.12 1.61-59.24-8.34-76.05-30.52z" fill="none"/><path d="M353.13 404.6s-22.28 16.63-63.88 19.61c-34.5 2.47-74.05-12.6-86.14-46.45-12.08 33.85-51.65 48.92-86.14 46.45-41.6-3-63.87-19.62-63.87-19.62m271.32-34.89s-43.15 1.64-56.97-37.04c-18.98-53.14-63.08-51.24-63.08-51.24s-44.1-1.87-63.1 51.24c-13.8 38.68-56.96 37.04-56.96 37.04" fill="none"/></g></svg>
